{"title":"Interview with the Assassin(dvdripmp4)","uid":7738006,"size":828272936,"categoryP":"video","categoryS":"movies","magnet":"?xt=urn:btih:6d0864f5435b0d517353856834e877250f0b18f7&amp;dn=Interview+with+the+Assassin%28dvdripmp4%29&amp;tr=udp%3A%2F%2Ftracker.openbittorrent.com%3A80&amp;tr=udp%3A%2F%2Fopen.demonii.com%3A1337&amp;tr=udp%3A%2F%2Ftracker.coppersurfer.tk%3A6969&amp;tr=udp%3A%2F%2Fexodus.desync.com%3A6969","seeders":2,"leechers":1,"uploader":"russell887","files":1,"time":1350536212,"description":"Out of work TV cameraman Ron Kobelski is approached by his formerly reclusive neighbor Walter Ohlinger. Ohlinger claims that he was the mysterious &quot;second gunman&quot; that shot and killed President Kennedy. Ohlinger has kept quiet all these years, but has decided to tell his story now that he has been diagnosed with terminal cancer. Kobelski is skeptical of his neighbor's story, after his investigations provide ambiguous answers. His attitude changes, however, after he receives threatening messages on his answering machine, and spots shadowy figures in his backyard. Is Ohlinger telling the truth? Or is there a bigger conspiracy at work? \n\nINFO: \nFormat : MPEG-4\nFormat profile : Base Media / Version 2\nCodec ID : mp42\nFile size : 790 MiB\nDuration : 1h 23mn\nOverall bit rate mode : Variable\nOverall bit rate : 1 324 Kbps \nVideo\nID : 1\nFormat : AVC\nFormat/Info : Advanced Video Codec\nFormat profile : &lt;a class=&quot;__cf_email__&quot; href=&quot;/cdn-cgi/l/email-protection&quot; data-cfemail=&quot;0a476b63644a4639243a&quot;&gt;[email&amp;#160;protected]&lt;/a&gt;&lt;script cf-hash='f9e31' type=&quot;text/javascript&quot;&gt;\n/* &lt;![CDATA[ */!function(){try{var t=&quot;currentScript&quot;in document?document.currentScript:function(){for(var t=document.getElementsByTagName(&quot;script&quot;),e=t.length;e--;)if(t[e].getAttribute(&quot;cf-hash&quot;))return t[e]}();if(t&amp;&amp;t.previousSibling){var e,r,n,i,c=t.previousSibling,a=c.getAttribute(&quot;data-cfemail&quot;);if(a){for(e=&quot;&quot;,r=parseInt(a.substr(0,2),16),n=2;a.length-n;n+=2)i=parseInt(a.substr(n,2),16)^r,e+=String.fromCharCode(i);e=document.createTextNode(e),c.parentNode.replaceChild(e,c)}}}catch(u){}}();/* ]]&gt; */&lt;/script&gt;\nFormat settings, CABAC : Yes\nFormat settings, ReFrames : 2 frames\nCodec ID : avc1\nCodec ID/Info : Advanced Video Coding\nDuration : 1h 23mn\nBit rate mode : Variable\nBit rate : 1 242 Kbps\nMaximum bit rate : 5 291 Kbps\nWidth : 720 pixels\nHeight : 480 pixels\nDisplay aspect ratio : 4:3\nFrame rate mode : Constant\nFrame rate : 29.970 fps\nStandard : NTSC\nColor space : YUV\nChroma subsampling : 4:2:0\nBit depth : 8 bits\nScan type : Progressive\nBits/(Pixel*Frame) : 0.120\nStream size : 741 MiB (94%)\nLanguage : English\nAudio\nID : 2\nFormat : AAC\nFormat/Info : Advanced Audio Codec\nFormat profile : LC\nCodec ID : 40\nDuration : 1h 23mn\nBit rate mode : Variable\nBit rate : 77.9 Kbps\nMaximum bit rate : 93.6 Kbps\nChannel(s) : 2 channels\nChannel positions : Front: L R\nSampling rate : 48.0 KHz\nCompression mode : Lossy\nStream size : 46.5 MiB (6%)\nTitle : Unspecified\nLanguage : English \n\nIMDb- http://www.imdb.com/title/tt0308411/ \nSIZE: 789MB","torrent":{"xt":"urn:btih:6d0864f5435b0d517353856834e877250f0b18f7","amp;dn":"Interview+with+the+Assassin%28dvdripmp4%29","amp;tr":["udp%3A%2F%2Ftracker.openbittorrent.com%3A80","udp%3A%2F%2Fopen.demonii.com%3A1337","udp%3A%2F%2Ftracker.coppersurfer.tk%3A6969","udp%3A%2F%2Fexodus.desync.com%3A6969"],"infoHash":"6d0864f5435b0d517353856834e877250f0b18f7","infoHashBuffer":{"type":"Buffer","data":[109,8,100,245,67,91,13,81,115,83,133,104,52,232,119,37,15,11,24,247]},"announce":[],"urlList":[]}}